_______ Visit us at our Semi Public Bittorrent Community ________
  
http://p2pdl.com  _____________________________  http://p2pdl.com



Nautanki Saala 2013 BRRip 480p x264 Hindi ESubs - ViZNU [P2PDL]


Genre: Comedy
Plot: An actor's life changes dramatically when he saves a stranger from suicide.   
Director: Rohan Sippy
Stars: Ayushmann Khurrana, Kunaal Roy Kapur, Pooja Salvi.
Rated: U/A


Info: 
http://www.imdb.com/title/tt2341766/

Format                         : MPEG-4
File size                      : 402 MiB
Duration                       : 2h 4mn
Overall bit rate               : 450 Kbps
Source                         : 720p.Bluray.DDR

Video
Format                         : AVC
Bit rate                       : 407 Kbps
Width                          : 720 pixels
Height                         : 304 pixels
Display aspect ratio           : 2.35:1
Frame rate mode                : Constant
Frame rate                     : 24.000 fps
Stream size                    : 364 MiB (90%)
Writing library                : x264 core 130

Audio
Format                         : AAC
Bit rate mode                  : Variable
Bit rate                       : 40.0 Kbps
Channel(s)                     : 2 channels
Channel positions              : Front: L R
Sampling rate                  : 48.0 KHz
Stream size                    : 35.8 MiB (9%)
Language                       : Hindi

Subtitle                       : Yes(English)
 
http://ultraimg.com/images/izfc.png 
http://ultraimg.com/images/dzLVk.png 
http://ultraimg.com/images/wyHS6.png 
http://ultraimg.com/images/tN5dY.png 
http://ultraimg.com/images/EQ7dv.png 
http://ultraimg.com/images/ofGOw.png 
http://ultraimg.com/images/7VIYR.png 
http://ultraimg.com/images/qgHSQ.png

----------------------------------------------------------------------------------------------------


Encoded using revolutionary 10bit encoding, which enables us to provide you more crispier 
and sharper images at small sizes, just make sure you follow our instructions without a fault.
Recommend to you to use latest version of VLC player. Install K-Lite Codec Pack or shark007 codecs
in case of any kind of problem in playback (For non-VLC Media Player users). Alternatively, install
Core AVC codecs, the fastest decoder that there is coupled with Community Center Codec Pack and play
on Windows Media Player Classic. Check sample to be sure.
Enjoy!

Encoder Notes:Looking For Early Access To Anything You Can Provide DVDScr, R5, DVDR, BluRay, Direct
Audio, Music Releases and Seedboxes. We require dedicated servers, so as to do more 
and fast releases of movies.
If You Got anything to offer please contact us at "contact@p2pdl.com".

Face book Fan Page:   
http://fbl.me/BC